<svg width="64" height="64" xmlns="http://www.w3.org/2000/svg" style="image-rendering: pixelated;">
  <!-- Base wall color -->
  <rect width="64" height="64" fill="#8B7355"/>
  
  <!-- Brick pattern -->
  <!-- Row 1 -->
  <rect x="0" y="0" width="32" height="16" fill="#A0845C" stroke="#6B5D42" stroke-width="1"/>
  <rect x="32" y="0" width="32" height="16" fill="#9C8058" stroke="#6B5D42" stroke-width="1"/>
  
  <!-- Row 2 -->
  <rect x="0" y="16" width="16" height="16" fill="#9C8058" stroke="#6B5D42" stroke-width="1"/>
  <rect x="16" y="16" width="32" height="16" fill="#A0845C" stroke="#6B5D42" stroke-width="1"/>
  <rect x="48" y="16" width="16" height="16" fill="#9C8058" stroke="#6B5D42" stroke-width="1"/>
  
  <!-- Row 3 -->
  <rect x="0" y="32" width="32" height="16" fill="#9C8058" stroke="#6B5D42" stroke-width="1"/>
  <rect x="32" y="32" width="32" height="16" fill="#A0845C" stroke="#6B5D42" stroke-width="1"/>
  
  <!-- Row 4 -->
  <rect x="0" y="48" width="16" height="16" fill="#A0845C" stroke="#6B5D42" stroke-width="1"/>
  <rect x="16" y="48" width="32" height="16" fill="#9C8058" stroke="#6B5D42" stroke-width="1"/>
  <rect x="48" y="48" width="16" height="16" fill="#A0845C" stroke="#6B5D42" stroke-width="1"/>
  
  <!-- Add some texture details -->
  <!-- Small cracks and imperfections -->
  <rect x="8" y="8" width="2" height="1" fill="#6B5D42"/>
  <rect x="24" y="12" width="1" height="2" fill="#6B5D42"/>
  <rect x="40" y="6" width="2" height="1" fill="#6B5D42"/>
  <rect x="12" y="24" width="1" height="2" fill="#6B5D42"/>
  <rect x="36" y="28" width="2" height="1" fill="#6B5D42"/>
  <rect x="52" y="20" width="1" height="2" fill="#6B5D42"/>
  <rect x="20" y="40" width="2" height="1" fill="#6B5D42"/>
  <rect x="44" y="44" width="1" height="2" fill="#6B5D42"/>
  <rect x="8" y="56" width="2" height="1" fill="#6B5D42"/>
  
  <!-- Highlight edges for depth -->
  <rect x="0" y="0" width="64" height="1" fill="#B8A06B"/>
  <rect x="0" y="16" width="64" height="1" fill="#B8A06B"/>
  <rect x="0" y="32" width="64" height="1" fill="#B8A06B"/>
  <rect x="0" y="48" width="64" height="1" fill="#B8A06B"/>
  
  <rect x="0" y="0" width="1" height="64" fill="#B8A06B"/>
  <rect x="16" y="16" width="1" height="16" fill="#B8A06B"/>
  <rect x="32" y="0" width="1" height="16" fill="#B8A06B"/>
  <rect x="48" y="16" width="1" height="16" fill="#B8A06B"/>
  <rect x="16" y="48" width="1" height="16" fill="#B8A06B"/>
  <rect x="48" y="48" width="1" height="16" fill="#B8A06B"/>
</svg>